<svg width="28" height="37" viewBox="0 0 28 37" fill="none" xmlns="http://www.w3.org/2000/svg">
<path d="M14 22.2C17.8605 22.2 21 18.8811 21 14.8C21 10.7189 17.8605 7.39996 14 7.39996C10.1395 7.39996 7 10.7189 7 14.8C7 18.8811 10.1395 22.2 14 22.2ZM14 11.1C15.9303 11.1 17.5 12.7594 17.5 14.8C17.5 16.8405 15.9303 18.5 14 18.5C12.0697 18.5 10.5 16.8405 10.5 14.8C10.5 12.7594 12.0697 11.1 14 11.1Z" fill="white"/>
<path d="M12.985 36.6562C13.2812 36.8798 13.636 37 14 37C14.364 37 14.7188 36.8798 15.015 36.6562C15.547 36.2584 28.0506 26.7142 27.9998 14.8001C27.9998 6.6397 21.7192 0 14 0C6.28084 0 0.000154064 6.6397 0.000154064 14.7909C-0.0505954 26.7142 12.453 36.2584 12.985 36.6562ZM14 3.70003C19.7907 3.70003 24.4999 8.67842 24.4999 14.8094C24.5366 23.0197 16.821 30.392 14 32.81C11.1808 30.3902 3.46337 23.016 3.50012 14.8001C3.50012 8.67842 8.20931 3.70003 14 3.70003Z" fill="white"/>
</svg>
