<svg width="29" height="28" viewBox="0 0 29 28" fill="none" xmlns="http://www.w3.org/2000/svg">
<path d="M4.8245 21H23.4912C24.1328 21 24.6578 20.475 24.6578 19.8333C24.6578 19.1917 24.1328 18.6667 23.4912 18.6667H4.8245C4.18284 18.6667 3.65784 19.1917 3.65784 19.8333C3.65784 20.475 4.18284 21 4.8245 21ZM4.8245 15.1667H23.4912C24.1328 15.1667 24.6578 14.6417 24.6578 14C24.6578 13.3583 24.1328 12.8333 23.4912 12.8333H4.8245C4.18284 12.8333 3.65784 13.3583 3.65784 14C3.65784 14.6417 4.18284 15.1667 4.8245 15.1667ZM3.65784 8.16667C3.65784 8.80833 4.18284 9.33333 4.8245 9.33333H23.4912C24.1328 9.33333 24.6578 8.80833 24.6578 8.16667C24.6578 7.525 24.1328 7 23.4912 7H4.8245C4.18284 7 3.65784 7.525 3.65784 8.16667Z" fill="white"/>
</svg>
