<svg width="48" height="48" viewBox="0 0 48 48" fill="none" xmlns="http://www.w3.org/2000/svg">
<path d="M5.95172 21.823C5.95172 14.3416 5.95172 10.6 8.27687 8.2768C10.6 5.95166 14.3417 5.95166 21.823 5.95166H25.7908C33.2722 5.95166 37.0138 5.95166 39.337 8.2768C41.6621 10.6 41.6621 14.3416 41.6621 21.823V25.7908C41.6621 33.2721 41.6621 37.0138 39.337 39.3369C37.0138 41.6621 33.2722 41.6621 25.7908 41.6621H21.823C14.3417 41.6621 10.6 41.6621 8.27687 39.3369C5.95172 37.0138 5.95172 33.2721 5.95172 25.7908V21.823Z" stroke="#532D15" stroke-width="2"/>
<path d="M32.7345 17.8551C34.3781 17.8551 35.7104 16.5227 35.7104 14.8792C35.7104 13.2357 34.3781 11.9033 32.7345 11.9033C31.091 11.9033 29.7587 13.2357 29.7587 14.8792C29.7587 16.5227 31.091 17.8551 32.7345 17.8551Z" fill="#532D15"/>
<path d="M23.8069 29.7585C27.094 29.7585 29.7586 27.0938 29.7586 23.8067C29.7586 20.5197 27.094 17.855 23.8069 17.855C20.5198 17.855 17.8552 20.5197 17.8552 23.8067C17.8552 27.0938 20.5198 29.7585 23.8069 29.7585Z" stroke="#532D15" stroke-width="2"/>
</svg>
