<svg width="48" height="48" viewBox="0 0 48 48" fill="none" xmlns="http://www.w3.org/2000/svg">
<path d="M39.6279 19.3014H37.4614C36.8892 19.2912 36.3433 19.0592 35.9387 18.6543C35.5342 18.2494 35.3027 17.7033 35.293 17.131C35.2928 15.6627 35.0033 14.2087 34.4411 12.8522C33.879 11.4958 33.0552 10.2633 32.0167 9.22519C30.9782 8.18709 29.7455 7.3637 28.3888 6.80203C27.0321 6.24036 25.5781 5.9514 24.1097 5.95166H17.4358C14.4707 5.95166 11.627 7.12942 9.53015 9.22589C7.4333 11.3224 6.25504 14.1659 6.25452 17.131V30.4827C6.25504 33.4479 7.4333 36.2914 9.53015 38.3878C11.627 40.4843 14.4707 41.6621 17.4358 41.6621H30.7856C33.7507 41.6615 36.5942 40.4833 38.6907 38.3864C40.7872 36.2896 41.9649 33.4459 41.9649 30.4807V21.6365C41.9723 21.3276 41.9168 21.0206 41.802 20.7338C41.6871 20.447 41.5152 20.1866 41.2967 19.9683C41.0781 19.7499 40.8175 19.5782 40.5307 19.4636C40.2438 19.349 39.9367 19.2938 39.6279 19.3014ZM17.2692 14.9626H25.2782C26.4468 14.9626 27.4467 15.9625 27.4467 17.131C27.4467 18.2995 26.4468 19.3034 25.2802 19.3034H17.2652C16.693 19.2932 16.147 19.0612 15.7425 18.6563C15.338 18.2514 15.1065 17.7052 15.0968 17.133C15.0968 15.9645 16.0987 14.9646 17.2652 14.9646M30.9483 32.6531H17.4358C16.8632 32.6434 16.3168 32.4117 15.9119 32.0067C15.5069 31.6018 15.2751 31.0553 15.2654 30.4827C15.2654 29.3142 16.2673 28.3143 17.4358 28.3143H30.9522C32.1188 28.3143 33.1206 29.3142 33.1206 30.4827C33.1206 31.6513 32.1188 32.6531 30.9522 32.6531" fill="#532D15"/>
</svg>
