<svg width="48" height="48" viewBox="0 0 48 48" fill="none" xmlns="http://www.w3.org/2000/svg">
<path fill-rule="evenodd" clip-rule="evenodd" d="M44.0322 11.6894C42.5465 12.3405 40.9717 12.7651 39.3601 12.9491C41.0488 11.9532 42.3179 10.3773 42.9311 8.5151C41.3296 9.44867 39.5825 10.1066 37.763 10.4613C36.9964 9.6611 36.0755 9.02469 35.0559 8.5906C34.0363 8.15651 32.9393 7.93375 31.8311 7.9358C30.7709 7.92743 29.7195 8.12804 28.7369 8.52615C27.7542 8.92427 26.8597 9.5121 26.1043 10.256C25.3489 11 24.7476 11.8855 24.3345 12.8619C23.9215 13.8384 23.7049 14.8867 23.6971 15.9468C23.6971 16.5618 23.7665 17.1729 23.9054 17.7701C20.6807 17.6163 17.5234 16.7918 14.6352 15.3492C11.7471 13.9067 9.19139 11.8778 7.13142 9.39199C6.09229 11.1558 5.77386 13.2526 6.2425 15.2454C6.71114 17.2383 7.93069 18.9734 9.64702 20.0892C8.35706 20.0511 7.09396 19.7114 5.95893 19.0973V19.1965C5.97042 21.0589 6.62745 22.8597 7.81802 24.2919C9.00859 25.7242 10.659 26.6992 12.488 27.0508C11.2864 27.3718 10.0282 27.4193 8.80584 27.1897C9.34014 28.7906 10.3583 30.1862 11.7197 31.1837C13.0811 32.1813 14.7187 32.7315 16.4062 32.7585C12.9752 35.3938 8.65023 36.5841 4.35394 36.0756C8.08797 38.4367 12.4169 39.6863 16.8347 39.6784C19.8595 39.7234 22.8629 39.1665 25.6705 38.0401C28.478 36.9138 31.0336 35.2404 33.1885 33.1174C35.3435 30.9944 37.0548 28.4641 38.2229 25.6737C39.3911 22.8833 39.9927 19.8885 39.9929 16.8634C39.9929 16.5123 39.9929 16.171 39.9691 15.8258C41.5619 14.7033 42.9384 13.3019 44.0322 11.6894Z" fill="#532D15"/>
</svg>
