<svg width="48" height="48" viewBox="0 0 48 48" fill="none" xmlns="http://www.w3.org/2000/svg">
<path d="M24.4345 7.93555C25.4765 7.9415 28.0836 7.96729 30.8546 8.08037L31.8381 8.12402C34.6266 8.25694 37.4132 8.48707 38.7967 8.8779C40.6408 9.40563 42.0887 10.9412 42.5785 12.8894C43.3591 15.9843 43.4566 22.0193 43.4683 23.4815L43.4703 23.783V24.1282C43.4566 25.5904 43.3591 31.6274 42.5785 34.7203C42.0828 36.6745 40.633 38.212 38.7967 38.7318C37.4132 39.1226 34.6266 39.3528 31.8381 39.4857L30.8546 39.5313C28.0836 39.6424 25.4765 39.6702 24.4345 39.6742L23.9759 39.6762H23.4783C21.2732 39.6623 12.051 39.5611 9.11608 38.7318C7.27397 38.2041 5.82409 36.6685 5.33429 34.7203C4.55374 31.6254 4.45617 25.5904 4.44446 24.1282V23.4815C4.45617 22.0193 4.55374 15.9823 5.33429 12.8894C5.82994 10.9352 7.27983 9.39769 9.11803 8.87989C12.051 8.04863 21.2752 7.94745 23.4803 7.93555H24.4345ZM20.0536 16.8632V30.7505L31.762 23.8068L20.0536 16.8632Z" fill="#532D15"/>
</svg>
