<svg width="49" height="48" viewBox="0 0 49 48" fill="none" xmlns="http://www.w3.org/2000/svg">
<path d="M24.6514 4.04736C13.7399 4.04736 4.81226 12.9551 4.81226 23.9262C4.81226 33.8457 12.0734 42.079 21.5565 43.5669V29.6795H16.5173V23.9262H21.5565V19.5417C21.5565 14.5621 24.5125 11.8243 29.0557 11.8243C31.2181 11.8243 33.4798 12.2012 33.4798 12.2012V17.1015H30.9801C28.52 17.1015 27.7463 18.6291 27.7463 20.1964V23.9262H33.2616L32.3688 29.6795H27.7463V43.5669C32.4213 42.8286 36.6783 40.4433 39.7488 36.8415C42.8194 33.2398 44.5011 28.6591 44.4905 23.9262C44.4905 12.9551 35.5629 4.04736 24.6514 4.04736Z" fill="#532D15"/>
</svg>
