<svg width="31" height="31" viewBox="0 0 31 31" fill="none" xmlns="http://www.w3.org/2000/svg">
<path d="M1 8.25L7.3945 1.8555C7.66428 1.58411 7.98511 1.36879 8.3385 1.22196C8.69188 1.07513 9.07083 0.999698 9.4535 1H21.5465C21.9292 0.999698 22.3081 1.07513 22.6615 1.22196C23.0149 1.36879 23.3357 1.58411 23.6055 1.8555L30 8.25M3.9 15.5V27.1C3.9 27.8691 4.20553 28.6068 4.74939 29.1506C5.29325 29.6945 6.03087 30 6.8 30H24.2C24.9691 30 25.7068 29.6945 26.2506 29.1506C26.7945 28.6068 27.1 27.8691 27.1 27.1V15.5" stroke="white" stroke-width="2" stroke-linecap="round" stroke-linejoin="round"/>
<path d="M19.85 30V24.2C19.85 23.4309 19.5445 22.6932 19.0006 22.1494C18.4568 21.6055 17.7191 21.3 16.95 21.3H14.05C13.2809 21.3 12.5432 21.6055 11.9994 22.1494C11.4555 22.6932 11.15 23.4309 11.15 24.2V30M1 8.25H30V12.6C30 13.3691 29.6945 14.1068 29.1506 14.6506C28.6068 15.1945 27.8691 15.5 27.1 15.5C26.2528 15.4534 25.4437 15.1328 24.7945 14.5865C24.6215 14.4615 24.4135 14.3942 24.2 14.3942C23.9865 14.3942 23.7785 14.4615 23.6055 14.5865C22.9563 15.1328 22.1472 15.4534 21.3 15.5C20.4528 15.4534 19.6437 15.1328 18.9945 14.5865C18.8215 14.4615 18.6135 14.3942 18.4 14.3942C18.1865 14.3942 17.9785 14.4615 17.8055 14.5865C17.1563 15.1328 16.3472 15.4534 15.5 15.5C14.6528 15.4534 13.8437 15.1328 13.1945 14.5865C13.0215 14.4615 12.8135 14.3942 12.6 14.3942C12.3865 14.3942 12.1785 14.4615 12.0055 14.5865C11.3563 15.1328 10.5472 15.4534 9.7 15.5C8.85282 15.4534 8.04371 15.1328 7.3945 14.5865C7.22149 14.4615 7.01346 14.3942 6.8 14.3942C6.58654 14.3942 6.37851 14.4615 6.2055 14.5865C5.55629 15.1328 4.74718 15.4534 3.9 15.5C3.13087 15.5 2.39325 15.1945 1.84939 14.6506C1.30553 14.1068 1 13.3691 1 12.6V8.25Z" stroke="white" stroke-width="2" stroke-linecap="round" stroke-linejoin="round"/>
</svg>
