<svg width="23" height="31" viewBox="0 0 23 31" fill="none" xmlns="http://www.w3.org/2000/svg">
<path d="M11.5 18.2357C14.6711 18.2357 17.25 15.5095 17.25 12.1571C17.25 8.80479 14.6711 6.07855 11.5 6.07855C8.32887 6.07855 5.75 8.80479 5.75 12.1571C5.75 15.5095 8.32887 18.2357 11.5 18.2357ZM11.5 9.11784C13.0856 9.11784 14.375 10.481 14.375 12.1571C14.375 13.8333 13.0856 15.1964 11.5 15.1964C9.91444 15.1964 8.625 13.8333 8.625 12.1571C8.625 10.481 9.91444 9.11784 11.5 9.11784Z" fill="white"/>
<path d="M10.6663 30.1104C10.9096 30.2941 11.201 30.3929 11.5 30.3929C11.799 30.3929 12.0905 30.2941 12.3337 30.1104C12.7707 29.7837 23.0416 21.9438 22.9999 12.1572C22.9999 5.45404 17.8407 0 11.5 0C5.15926 0 0.000126553 5.45404 0.000126553 12.1496C-0.0415605 21.9438 10.2293 29.7837 10.6663 30.1104ZM11.5 3.03931C16.2566 3.03931 20.1249 7.1287 20.1249 12.1648C20.1551 18.9091 13.8172 24.9649 11.5 26.9511C9.18421 24.9634 2.84491 18.906 2.87509 12.1572C2.87509 7.1287 6.74336 3.03931 11.5 3.03931Z" fill="white"/>
</svg>
