<svg width="25" height="27" viewBox="0 0 25 27" fill="none" xmlns="http://www.w3.org/2000/svg">
<path d="M17.8674 16.7715H16.7381L16.3379 16.3598C17.7871 14.5668 18.5836 12.2778 18.582 9.91043C18.582 7.95033 18.0371 6.03425 17.0162 4.40449C15.9953 2.77473 14.5443 1.50449 12.8465 0.75439C11.1488 0.00429407 9.28072 -0.191965 7.47844 0.19043C5.67615 0.572826 4.02065 1.5167 2.72128 2.9027C1.42191 4.2887 0.537025 6.05457 0.178529 7.977C-0.179968 9.89943 0.0040257 11.8921 0.707241 13.703C1.41046 15.5139 2.60131 17.0617 4.12921 18.1506C5.65711 19.2396 7.45343 19.8209 9.29102 19.8209C11.5923 19.8209 13.7078 18.9213 15.3373 17.4271L15.7233 17.854V19.0585L22.8702 26.6667L25 24.3949L17.8674 16.7715ZM9.29102 16.7715C5.73185 16.7715 2.85878 13.7069 2.85878 9.91043C2.85878 6.11397 5.73185 3.04937 9.29102 3.04937C12.8502 3.04937 15.7233 6.11397 15.7233 9.91043C15.7233 13.7069 12.8502 16.7715 9.29102 16.7715Z" fill="white"/>
</svg>
