<svg width="30" height="30" viewBox="0 0 30 30" fill="none" xmlns="http://www.w3.org/2000/svg">
<path d="M25.08 19.5599C25.605 18.1558 25.89 16.6525 25.89 15.0006C25.89 13.8112 25.725 12.6714 25.44 11.6142C24.465 11.862 23.445 11.9941 22.38 11.9941C20.199 11.9967 18.0493 11.4218 16.1123 10.3178C14.1753 9.21385 12.5076 7.61319 11.25 5.6508C9.90594 9.23667 7.36758 12.1208 4.155 13.7121C4.095 14.1251 4.095 14.5711 4.095 15.0006C4.095 16.5777 4.37707 18.1394 4.92509 19.5964C5.47312 21.0535 6.27638 22.3774 7.289 23.4926C9.33408 25.7448 12.1078 27.01 15 27.01C16.575 27.01 18.09 26.6301 19.455 25.9528C20.31 27.7534 20.7 28.6454 20.67 28.6454C18.21 29.554 16.305 30 15 30C11.37 30 7.905 28.4307 5.355 25.6059C3.80257 23.9043 2.64941 21.8123 1.995 19.5103H0V11.9941H1.635C2.13036 9.33871 3.26924 6.8805 4.93078 4.88033C6.59233 2.88016 8.71456 1.41266 11.0723 0.633534C13.43 -0.145589 15.9353 -0.207267 18.3223 0.455042C20.7093 1.11735 22.889 2.47894 24.63 4.39534C26.5197 6.46945 27.8089 9.11368 28.335 11.9941H30V19.5103H29.91L24.57 24.9121L16.62 23.921V21.1623H23.865L25.08 19.5599ZM10.905 14.6207C11.355 14.6207 11.79 14.8189 12.105 15.1823C12.4216 15.5338 12.5992 16.0088 12.5992 16.5039C12.5992 16.9989 12.4216 17.4739 12.105 17.8254C11.79 18.1723 11.355 18.3705 10.905 18.3705C9.96 18.3705 9.195 17.5446 9.195 16.5039C9.195 15.4632 9.96 14.6207 10.905 14.6207ZM19.08 14.6207C20.025 14.6207 20.775 15.4632 20.775 16.5039C20.775 17.5446 20.025 18.3705 19.08 18.3705C18.135 18.3705 17.37 17.5446 17.37 16.5039C17.37 16.0044 17.5502 15.5254 17.8708 15.1723C18.1915 14.8191 18.6265 14.6207 19.08 14.6207Z" fill="white"/>
</svg>
